# xmcd CD database file
#
# Track frame offsets:
#	150
#	18601
#	35676
#	50503
#	62599
#	79636
#	97349
#	115147
#	135470
#	152212
#	171881
#	193539
#
# Disc length: 2748 seconds
#
# Revision: 1
# Processed by: cddbd v1.5.2PL0 Copyright (c) Steve Scherf et al.
# Submitted via: CDex 1.70beta2
#
DISCID=a10aba0c
DTITLE=High Society - All That Jazz - Disc 1
DYEAR=1900
DGENRE=Jazz
TTITLE0=Ute Lemper - all that jazz
TTITLE1=Peter Cincolli - i love paris
TTITLE2=Peter Grant - you're the first, the last, my everything
TTITLE3=Laura Fygi - i will wait for you
TTITLE4=Chantz - mack the knife
TTITLE5=Jane Monheit - if you went away
TTITLE6=Madeleine Peyroux - dance me to the end of love
TTITLE7=Laktos - minor swing (in "chocolat")
TTITLE8=Aaron Neville - summertime
TTITLE9=Curtis Stigers - love
TTITLE10=Rousell Watson - strangers in the night
TTITLE11=Jesse Harris - how?
EXTD=
EXTT0=
EXTT1=
EXTT2=
EXTT3=
EXTT4=
EXTT5=
EXTT6=
EXTT7=
EXTT8=
EXTT9=
EXTT10=
EXTT11=
PLAYORDER=
